<mxfile host="app.diagrams.net" modified="2022-08-01T07:04:27.524Z" agent="5.0 (Windows NT 10.0; Win64; x64) AppleWebKit/537.36 (KHTML, like Gecko) Chrome/103.0.5060.134 Safari/537.36 Edg/103.0.1264.77" etag="gHMphWQMMV847jBp0Qn8" version="20.1.1" type="github">
  <diagram id="3kAjfBVHgub8NVI0B_gu" name="Page-1">
    <mxGraphModel dx="1038" dy="579" grid="1" gridSize="10" guides="1" tooltips="1" connect="1" arrows="1" fold="1" page="1" pageScale="1" pageWidth="827" pageHeight="1169" math="0" shadow="0">
      <root>
        <mxCell id="0" />
        <mxCell id="1" parent="0" />
        <mxCell id="gFsc8DZg-UTLTn9MaJXI-6" style="edgeStyle=orthogonalEdgeStyle;rounded=0;orthogonalLoop=1;jettySize=auto;html=1;exitX=0.5;exitY=1;exitDx=0;exitDy=0;entryX=0.5;entryY=0;entryDx=0;entryDy=0;" edge="1" parent="1" source="gFsc8DZg-UTLTn9MaJXI-1" target="gFsc8DZg-UTLTn9MaJXI-2">
          <mxGeometry relative="1" as="geometry" />
        </mxCell>
        <mxCell id="gFsc8DZg-UTLTn9MaJXI-1" value="设计一个主备之间的QIO通道，将快照存储的QEMUFile从本地替换为备份路径。" style="rounded=1;whiteSpace=wrap;html=1;" vertex="1" parent="1">
          <mxGeometry x="280" y="120" width="160" height="80" as="geometry" />
        </mxCell>
        <mxCell id="gFsc8DZg-UTLTn9MaJXI-7" style="edgeStyle=orthogonalEdgeStyle;rounded=0;orthogonalLoop=1;jettySize=auto;html=1;exitX=0.5;exitY=1;exitDx=0;exitDy=0;entryX=0.5;entryY=0;entryDx=0;entryDy=0;" edge="1" parent="1" source="gFsc8DZg-UTLTn9MaJXI-2" target="gFsc8DZg-UTLTn9MaJXI-5">
          <mxGeometry relative="1" as="geometry" />
        </mxCell>
        <mxCell id="gFsc8DZg-UTLTn9MaJXI-2" value="完善备份接收端保存快照功能的代码" style="rounded=1;whiteSpace=wrap;html=1;" vertex="1" parent="1">
          <mxGeometry x="280" y="240" width="160" height="80" as="geometry" />
        </mxCell>
        <mxCell id="gFsc8DZg-UTLTn9MaJXI-3" value="" style="rounded=1;whiteSpace=wrap;html=1;" vertex="1" parent="1">
          <mxGeometry x="280" width="160" height="80" as="geometry" />
        </mxCell>
        <mxCell id="gFsc8DZg-UTLTn9MaJXI-5" value="在现有热迁移中，插入保存快照的功能" style="rounded=1;whiteSpace=wrap;html=1;" vertex="1" parent="1">
          <mxGeometry x="280" y="360" width="160" height="80" as="geometry" />
        </mxCell>
      </root>
    </mxGraphModel>
  </diagram>
</mxfile>
